<?xml version="1.0" encoding="UTF-8" standalone="no"?>
<svg
   xmlns:dc="http://purl.org/dc/elements/1.1/"
   xmlns:cc="http://creativecommons.org/ns#"
   xmlns:rdf="http://www.w3.org/1999/02/22-rdf-syntax-ns#"
   xmlns:svg="http://www.w3.org/2000/svg"
   xmlns="http://www.w3.org/2000/svg"
   xmlns:sodipodi="http://sodipodi.sourceforge.net/DTD/sodipodi-0.dtd"
   xmlns:inkscape="http://www.inkscape.org/namespaces/inkscape"
   inkscape:export-ydpi="96"
   inkscape:export-xdpi="96"
   inkscape:export-filename="C:\Users\alanc\Documents\Projects\meme\meme\src\Assets\Images\lapis.png"
   inkscape:version="1.0 (4035a4fb49, 2020-05-01)"
   sodipodi:docname="lapis.svg"
   viewBox="0 0 649 649"
   height="649"
   width="649"
   id="svg32637"
   version="1.1">
  <metadata
     id="metadata32643">
    <rdf:RDF>
      <cc:Work
         rdf:about="">
        <dc:format>image/svg+xml</dc:format>
        <dc:type
           rdf:resource="http://purl.org/dc/dcmitype/StillImage" />
        <dc:title></dc:title>
      </cc:Work>
    </rdf:RDF>
  </metadata>
  <defs
     id="defs32641" />
  <sodipodi:namedview
     inkscape:current-layer="g32645"
     inkscape:window-maximized="1"
     inkscape:window-y="-8"
     inkscape:window-x="-8"
     inkscape:cy="376.29651"
     inkscape:cx="307.36739"
     inkscape:zoom="0.92610287"
     showgrid="false"
     id="namedview32639"
     inkscape:window-height="1017"
     inkscape:window-width="1920"
     inkscape:pageshadow="2"
     inkscape:pageopacity="0"
     guidetolerance="10"
     gridtolerance="10"
     objecttolerance="10"
     borderopacity="1"
     bordercolor="#666666"
     pagecolor="#ffffff" />
  <g
     id="g32645"
     inkscape:label="Image"
     inkscape:groupmode="layer">
    <path
       d="m 451.8206,57.138103 c -1.16772,0.01142 -2.32142,0.102268 -3.44531,0.28125 -1.49852,0.238609 -2.94534,0.632828 -4.3086,1.189453 -1.39487,0.569535 -4.56631,2.756826 -8.55273,5.822265 -3.98642,3.06545 -8.78595,7.008354 -13.43945,11.089844 -9.307,8.163 -33.33411,29.301635 -53.39063,46.974615 -20.05652,17.67298 -56.75414,49.97042 -81.55078,71.77148 -24.79663,21.80108 -52.37155,46.15659 -61.2793,54.12305 l -16.19531,14.48242 -10.76367,35.14063 c -9.27518,30.28226 -72.74541,241.3384 -117.273442,389.80078 h 49.447272 c 19.85154,-66.76255 48.83564,-163.49275 91.29492,-304.74805 6.59097,-21.92724 12.81182,-42.00365 17.52539,-56.6875 4.71147,-14.67747 7.91787,-23.9668 8.48047,-24.32617 0.2999,-0.18816 4.4778,0.81746 11.5625,2.72656 7.0847,1.90909 17.07495,4.72206 29.0039,8.14844 23.85789,6.85275 55.46528,16.16165 87.05665,25.60351 31.59135,9.44188 63.16661,19.01712 86.96679,26.40821 11.90007,3.69559 21.857,6.84344 28.89844,9.15625 7.04143,2.31286 11.16797,3.79045 11.41016,4.14062 0.33738,0.4878 -6.15028,23.60947 -16.875,60.46485 -10.72474,36.85538 -25.68748,87.4443 -42.29688,142.875 -13.6055,45.40576 -21.98579,73.32083 -31.85937,106.23828 h 49.79687 c 2.70035,-8.98642 6.33674,-21.11917 8.60938,-28.67188 38.87204,-129.18459 85.31494,-284.82039 86.23632,-288.98633 0.16922,-0.76508 -0.15552,-3.06751 -1.375,-8.41797 -1.21947,-5.3505 -3.33194,-13.74919 -6.73437,-26.71093 -6.80485,-25.92345 -18.76987,-70.09553 -39.07227,-144.61914 -6.74763,-24.76839 -16.47266,-60.64475 -21.60742,-79.72461 -5.13474,-19.079853 -10.47217,-37.076186 -11.86523,-39.994146 -0.62172,-1.30229 -1.42092,-2.537809 -2.36328,-3.693359 -0.9424,-1.15555 -2.03063,-2.232447 -3.22852,-3.216797 -1.19791,-0.984361 -2.50625,-1.877318 -3.89453,-2.666016 -1.3883,-0.788685 -2.85559,-1.472445 -4.36914,-2.041016 -1.51352,-0.568618 -3.07475,-1.019856 -4.64844,-1.34375 -1.57368,-0.323974 -3.15984,-0.519311 -4.72851,-0.574218 -0.39217,-0.01373 -0.78264,-0.01943 -1.17188,-0.01563 z m -10.85547,63.761717 c 0.49724,-0.014 0.95905,0.0962 1.39453,0.32813 0.58065,0.30919 1.11414,0.83358 1.625,1.57226 0.70795,1.02361 4.21581,12.8908 7.79493,26.36915 3.57911,13.47834 9.717,36.3602 13.63867,50.84961 3.92167,14.4894 13.056,48.52208 20.29883,75.6289 7.24283,27.10683 13.57987,50.50428 14.08398,51.99219 0.55251,1.63081 0.74207,3.28428 0.60742,4.60742 -0.13467,1.32312 -0.59218,2.31499 -1.3418,2.62109 -0.60253,0.24601 -49.98062,-14.28967 -109.73046,-32.30078 -59.74987,-18.01112 -109.724,-33.35882 -111.05079,-34.10547 -0.66911,-0.37652 -1.22262,-0.88228 -1.57812,-1.40039 -0.35547,-0.51812 -0.51181,-1.04989 -0.38867,-1.46875 0.22703,-0.77242 6.6458,-6.77141 23.33398,-21.62695 16.68815,-14.85553 43.64542,-38.56633 84.94141,-74.75781 25.71322,-22.53486 48.52481,-42.69524 50.6914,-44.80078 1.05848,-1.02864 2.003,-1.82598 2.85743,-2.40039 0.85444,-0.57442 1.61734,-0.9243 2.3125,-1.05274 0.17379,-0.0321 0.34402,-0.05 0.50976,-0.0547 z"
       style="fill:#f2f2f2;fill-opacity:1;stroke:#f2f2f2;stroke-width:1.43966;stroke-opacity:1"
       id="path33517" />
  </g>
</svg>
